<?xml version="1.0" encoding="UTF-8"?>
<svg width="250px" height="250px" viewBox="0 0 250 250" version="1.1" xmlns="http://www.w3.org/2000/svg" xmlns:xlink="http://www.w3.org/1999/xlink">
    <!-- Generator: Sketch 45.1 (43504) - http://www.bohemiancoding.com/sketch -->
    <title>transportation copy 4</title>
    <desc>Created with Sketch.</desc>
    <defs></defs>
    <g id="Page-1" stroke="none" stroke-width="1" fill="none" fill-rule="evenodd" opacity="0.9">
        <g id="transportation-copy-4">
            <g id="icon-hand" transform="translate(53.000000, 64.000000)">
                <g id="Group">
                    <g transform="translate(43.000000, 0.000000)" id="Shape" stroke="#0F243D" stroke-width="4">
                        <path d="M0.5,85.357 L0.5,28.817 C0.595,23.17 2.475,20.347 6.14,20.347 C9.804,20.347 11.636,22.337 11.636,26.317 L11.636,54.599"></path>
                        <path d="M11.53,55.357 L11.53,17.673 C11.625,12.028 13.505,9.205 17.17,9.205 C20.834,9.205 22.667,11.195 22.667,15.174 L22.667,52.028"></path>
                        <path d="M22.56,46.786 L22.56,9.102 C22.656,3.456 24.536,0.633 28.2,0.633 C31.865,0.633 33.697,2.623 33.697,6.603 L33.697,43.456"></path>
                        <path d="M33.59,55.357 L33.59,17.673 C33.686,12.028 35.566,9.205 39.23,9.205 C42.895,9.205 44.727,11.195 44.727,15.174 L44.727,52.028"></path>
                        <path d="M44.621,73.53 L44.621,44.694 C44.716,40.374 46.596,38.214 50.261,38.214 C53.925,38.214 55.758,39.737 55.758,42.782 L55.758,76.885"></path>
                        <path d="M55.815,74.924 C54.04,95.951 45.315,106.624 29.64,106.942 C13.966,107.259 5.384,111.779 3.894,120.5 C11.921,119.869 23.017,119.553 37.18,119.553 C51.344,119.553 57.555,104.677 55.815,74.924 L55.815,74.924 Z"></path>
                    </g>
                    <path d="M67.07,91.025 C58.36,84.184 54.252,78.377 54.748,73.605 C55.245,68.832 57.58,66.773 61.755,67.427 L67.757,71.244 L72.174,67.284 C77.867,67.284 80.714,69.607 80.714,74.255 C80.714,78.903 76.166,84.493 67.07,91.025 Z" id="Shape" fill="#E95545" fill-rule="nonzero"></path>
                    <path d="M114,53.5 L100,53.5 M85,53.5 L33,53.5" id="Shape" stroke="#0F243D" stroke-width="4" stroke-linecap="square"></path>
                    <path d="M131.125,52.945 C131.192612,55.4859683 129.875529,57.8633614 127.68544,59.1535564 C125.495351,60.4437513 122.777502,60.4433623 120.587783,59.1525406 C118.398063,57.8617188 117.081661,55.4839489 117.15,52.943 C117.251833,49.1567075 120.350812,46.1403878 124.138474,46.1409299 C127.926135,46.1414719 131.02425,49.1586785 131.125,52.945 M127.191,39.706 C125.993,36.039 122.049,34.026 118.381,35.222 C116.61682,35.7935238 115.152265,37.0430328 114.310051,38.6951973 C113.467838,40.3473619 113.317081,42.2665976 113.891,44.03 C114.215138,45.007137 114.75243,45.900004 115.464,46.644 C114.53599,46.1958469 113.519544,45.9607833 112.489,45.956 C108.67517,46.0205185 105.617233,49.1306241 105.617233,52.945 C105.617233,56.7593759 108.67517,59.8694815 112.489,59.934 C113.559,59.934 114.56,59.675 115.464,59.246 C114.751937,59.9903911 114.214596,60.8840234 113.891,61.862 C112.717084,65.527207 114.7268,69.4518414 118.386871,70.6416741 C122.046942,71.8315069 125.980273,69.8388656 127.186,66.184 C127.501844,65.2024429 127.591751,64.1621924 127.449,63.141 C127.936519,64.0481407 128.620091,64.8352213 129.45,65.445 C132.574874,67.7109626 136.944424,67.0187965 139.216,63.898 C141.482515,60.7753123 140.790077,56.4067322 137.669,54.138 C136.833771,53.5364001 135.874787,53.1288234 134.862,52.945 C135.874278,52.7612062 136.833058,52.3547409 137.669,51.755 C140.788535,49.4835422 141.480601,45.1155158 139.216,41.991 C138.126227,40.4905813 136.484899,39.4846929 134.653291,39.1947413 C132.821682,38.9047898 130.94992,39.354541 129.45,40.445 C128.619926,41.0543175 127.936591,41.8415201 127.45,42.749 C127.58916,41.7279136 127.500366,40.6886781 127.19,39.706" id="Shape" fill="#0F243D" fill-rule="nonzero"></path>
                    <path d="M78.736,75.02 C78.356,79.119 74.572,83.825 67.49,89.038 C60.406,83.828 56.628,79.118 56.241,75.021 L56.241,73.658 C56.551,70.397 58.577,69.024 59.881,68.898 C60.235,68.863 60.568,68.847 60.878,68.847 C62.748,68.847 63.531,69.415 65.078,71.239 L67.49,74.083 L69.903,71.239 C71.45,69.415 72.23,68.847 74.103,68.847 C74.409,68.847 74.743,68.863 75.101,68.899 C76.403,69.024 78.431,70.397 78.736,73.658 L78.736,75.021 L78.736,75.02 Z M75.406,65.797 C74.9733045,65.7540791 74.5388156,65.7317206 74.104,65.73 C70.841,65.73 69.278,67.123 67.49,69.236 C65.7,67.123 64.136,65.73 60.878,65.73 C60.468,65.73 60.035,65.752 59.575,65.797 C56.75,66.069 53.49,68.625 53.095,73.525 L53.095,75.154 C53.466,79.844 57.042,85.627 67.49,92.882 C77.94,85.627 81.516,79.844 81.886,75.154 L81.886,73.525 C81.489,68.625 78.227,66.069 75.406,65.797 L75.406,65.797 Z" id="Shape" fill="#E95545" fill-rule="nonzero"></path>
                    <g stroke-linecap="square" transform="translate(0.000000, 122.000000)" id="Shape" stroke="#0F243D" stroke-width="2">
                        <path d="M132.157,0 L21.13,0 M144.586,0 L136.3,0 M16.986,0 L8.7,0 M2.9,0 L0.414,0"></path>
                    </g>
                </g>
            </g>
        </g>
    </g>
</svg>