<?xml version="1.0" encoding="UTF-8"?>
<svg width="250px" height="250px" viewBox="0 0 250 250" version="1.1" xmlns="http://www.w3.org/2000/svg" xmlns:xlink="http://www.w3.org/1999/xlink">
    <!-- Generator: Sketch 45.1 (43504) - http://www.bohemiancoding.com/sketch -->
    <title>transportation copy 3</title>
    <desc>Created with Sketch.</desc>
    <defs></defs>
    <g id="Page-1" stroke="none" stroke-width="1" fill="none" fill-rule="evenodd" opacity="0.899999976">
        <g id="transportation-copy-3">
            <g id="icon-tree" transform="translate(38.000000, 54.000000)">
                <g id="Page-1">
                    <g id="techSG">
                        <g id="Group-40">
                            <g id="Group-102">
                                <g id="Group-16">
                                    <g id="Group-22">
                                        <g id="Group-7" transform="translate(40.000000, 5.000000)">
                                            <g id="Group-11">
                                                <circle id="Oval-5" fill="#E95545" fill-rule="nonzero" cx="97" cy="89" r="14"></circle>
                                                <path d="M7.37630868,66.0769643 C4.65268947,62.9918223 3,58.9389143 3,54.5 C3,44.8350169 10.8350169,37 20.5,37 C30.1649831,37 38,44.8350169 38,54.5 C38,58.9389143 36.3473105,62.9918223 33.6236913,66.0769643 C37.5411965,69.643624 40,74.7846698 40,80.5 C40,91.2695526 31.2695526,100 20.5,100 C9.73044738,100 1,91.2695526 1,80.5 C1,74.7846698 3.4588035,69.643624 7.37630868,66.0769643 Z" id="Combined-Shape" fill="#E8EAEC" fill-rule="nonzero"></path>
                                                <path d="M46.9233797,44.3936561 C43.845156,39.920671 42,34.2149933 42,28 C42,13.6405965 51.8497355,2 64,2 C76.1502645,2 86,13.6405965 86,28 C86,34.2149933 84.154844,39.920671 81.0766203,44.3936561 C86.5445659,49.1600958 90,56.176518 90,64 C90,78.3594035 78.3594035,90 64,90 C49.6405965,90 38,78.3594035 38,64 C38,56.176518 41.4554341,49.1600958 46.9233797,44.3936561 Z" id="Combined-Shape" fill="#C4C9CF" fill-rule="nonzero"></path>
                                                <g id="Group-4" stroke="#0F243D">
                                                    <path d="M63,92 L63,125.75" id="Shape" stroke-width="3.54098361" stroke-linecap="round"></path>
                                                    <path d="M45.6114806,42.993 C37.581604,50.4886494 34.857449,62.3015524 38.7570399,72.7162868 C42.6566309,83.1310213 52.3758925,90.000123 63.2123664,90.000123 C74.0488403,90.000123 83.7681019,83.1310213 87.6676928,72.7162868 C91.5672838,62.3015524 88.8431287,50.4886494 80.8132522,42.993 C83.4780674,38.5155 85.0551137,32.985 85.0551137,27 C85.0551137,12.087 75.2739315,0 63.2123664,0 C51.1508013,0 41.369619,12.087 41.369619,27 C41.369619,32.985 42.9422968,38.52 45.6114806,42.993 L45.6114806,42.993 Z" id="Path" stroke-width="4"></path>
                                                    <path d="M20,101.594897 L20,125.75" id="Shape" stroke-width="3.54098361" stroke-linecap="round"></path>
                                                    <path d="M1.35937477,87.7934139 C4.37638394,95.2473095 11.8959165,100.163572 20.2798064,100.163572 C28.6636962,100.163572 36.1832288,95.2473095 39.200238,87.7934139 C42.2172471,80.3395182 40.1096413,71.8849438 33.8971407,66.520257 C35.9588369,63.3156801 37.1789554,59.357464 37.1789554,55.0739591 C37.1789554,44.4006244 29.6115165,35.749877 20.2798064,35.749877 C10.9480962,35.749877 3.38065729,44.4006244 3.38065729,55.0739591 C3.38065729,59.357464 4.59739602,63.3189008 6.66247204,66.520257 C0.449971468,71.8849438 -1.6576344,80.3395182 1.35937477,87.7934139 Z" id="Path" stroke-width="4"></path>
                                                    <path d="M97,104.549568 L97,125.656403" id="Shape" stroke-width="3.54098361" stroke-linecap="round"></path>
                                                    <ellipse id="Oval" stroke-width="4" cx="97.3881445" cy="89.0712231" rx="14.3881445" ry="14.0712231"></ellipse>
                                                </g>
                                            </g>
                                        </g>
                                        <g id="Group-21" transform="translate(3.000000, 50.000000)">
                                            <circle id="Oval-6" stroke="#E95545" stroke-width="2" cx="18.5" cy="18.5" r="18.5"></circle>
                                            <path d="M14.508182,15.6632869 L16.4333569,15.6632869 L16.4333569,13.738112 L14.508182,13.738112 L14.508182,15.6632869 Z M17.5884618,15.6632869 L19.5136367,15.6632869 L19.5136367,13.738112 L17.5884618,13.738112 L17.5884618,15.6632869 Z M20.6687416,15.6632869 L22.5939164,15.6632869 L22.5939164,13.738112 L20.6687416,13.738112 L20.6687416,15.6632869 Z M23.7490214,15.6632869 L25.6741962,15.6632869 L25.6741962,13.738112 L23.7490214,13.738112 L23.7490214,15.6632869 Z M26.8293012,15.6632869 L28.754476,15.6632869 L28.754476,13.738112 L26.8293012,13.738112 L26.8293012,15.6632869 Z M25.2891613,18.7435667 L27.2143361,18.7435667 L27.2143361,16.8183918 L25.2891613,16.8183918 L25.2891613,18.7435667 Z M23.7490214,21.8238465 L25.6741962,21.8238465 L25.6741962,19.8986716 L23.7490214,19.8986716 L23.7490214,21.8238465 Z M22.2088815,18.7435667 L24.1340563,18.7435667 L24.1340563,16.8183918 L22.2088815,16.8183918 L22.2088815,18.7435667 Z M20.6687416,21.8238465 L22.5939164,21.8238465 L22.5939164,19.8986716 L20.6687416,19.8986716 L20.6687416,21.8238465 Z M19.1286017,18.7435667 L21.0537766,18.7435667 L21.0537766,16.8183918 L19.1286017,16.8183918 L19.1286017,18.7435667 Z M17.5884618,21.8238465 L19.5136367,21.8238465 L19.5136367,19.8986716 L17.5884618,19.8986716 L17.5884618,21.8238465 Z M16.0483219,18.7435667 L17.9734968,18.7435667 L17.9734968,16.8183918 L16.0483219,16.8183918 L16.0483219,18.7435667 Z M26.4442662,25.8667137 C25.2614387,25.8667137 24.2772894,26.6891484 24.0154656,27.7918886 L16.1884746,27.7918886 C16.0621831,27.1712122 15.7064108,26.6383238 15.2197266,26.2686902 L16.2007957,23.1714689 L28.5619585,23.1714689 L31,12.4859783 L11.4864275,9.87698133 L9.92318552,8.83430662 L9.99095168,8.49701598 C9.99095168,7.66996085 9.32099082,7 8.49547584,7 C7.66996085,7 7,7.66996085 7,8.49701598 C7,9.32253096 7.66996085,9.99095168 8.49547584,9.99095168 L8.79272284,9.93088622 L10.6285696,11.1568376 L13.6734262,23.1714689 L14.585189,23.1714689 L13.770455,25.748123 L13.6734262,25.7388821 C12.2564975,25.7388821 11.1075531,26.8878265 11.1075531,28.3062953 C11.1075531,29.723224 12.2564975,30.8721684 13.6734262,30.8721684 C14.7268819,30.8721684 15.6278637,30.2376308 16.0236797,29.3320285 L24.1340563,29.3320285 C24.5113906,30.2360906 25.4031316,30.8721684 26.4442662,30.8721684 C27.8257717,30.8721684 28.9469935,29.7509465 28.9469935,28.3694411 C28.9469935,26.9879356 27.8257717,25.8667137 26.4442662,25.8667137 L26.4442662,25.8667137 Z" id="Page-1" fill="#0F243D" fill-rule="nonzero"></path>
                                        </g>
                                        <g id="Group-18" transform="translate(43.000000, 0.000000)">
                                            <circle id="Oval-6" stroke="#E95545" stroke-width="2" cx="18.5" cy="18.5" r="18.5"></circle>
                                            <path d="M29.5,24.25 C26.7895,24.262 22.6885,24.376 20.5,25.669 L20.5,14.5 C20.5,13.507 22.0855,11.5735 29.5,11.5 L29.5,24.25 Z M17.5,25.669 C15.3115,24.376 11.2105,24.262 8.5,24.25 L8.5,11.5 C9.247,11.5075 9.9205,11.5375 10.5535,11.581 L10.9255,11.6035 L11.0635,11.614 C14.014,11.8255 17.14,12.4435 17.4535,14.2135 L17.5,14.5 L17.5,25.669 Z M19,14.5 C19,10.75 10.654,10 7,10 L7,26.5 L7.75,26.5 C8.014,26.5 8.251,26.5015 8.5,26.503 L8.5,28 C11.5,28 17.5,27.1 17.5,29.5 L20.5,29.5 C20.5,27.1 26.5,28 29.5,28 L29.5,26.503 C29.749,26.503 29.989,26.5 30.25,26.5 L31,26.5 L31,10 C27.349,10 19,10.75 19,14.5 L19,14.5 Z" id="Page-1" fill="#0F243D" fill-rule="nonzero"></path>
                                        </g>
                                        <g id="Group-19" transform="translate(128.000000, 27.000000)">
                                            <circle id="Oval-6" stroke="#E95545" stroke-width="2" cx="18.5" cy="18.5" r="18.5"></circle>
                                            <path d="M20.5,20.5 C18.844,20.5 17.5,19.1545 17.5,17.5 C17.5,15.8455 18.844,14.5 20.5,14.5 C22.156,14.5 23.5,15.8455 23.5,17.5 C23.5,19.1545 22.156,20.5 20.5,20.5 M28,20.5 C27.3265,20.5 26.7115,20.731 26.2105,21.106 L24.4165,19.6735 C24.778,19.027 25,18.292 25,17.5 C25,16.5295 24.6865,15.6355 24.1615,14.899 L26.485,12.5755 C26.9305,12.8395 27.4465,13 28,13 C29.656,13 31,11.656 31,10 C31,8.344 29.656,7 28,7 C26.344,7 25,8.344 25,10 C25,10.555 25.1605,11.0695 25.4245,11.515 L23.101,13.8385 C22.366,13.315 21.472,13 20.5,13 C18.9145,13 17.527,13.8265 16.723,15.0655 L12.9565,13.4515 C12.976,13.3015 13,13.1545 13,13 C13,11.344 11.656,10 10,10 C8.344,10 7,11.344 7,13 C7,14.656 8.344,16 10,16 C10.9645,16 11.8135,15.535 12.361,14.8285 L16.138,16.4455 C16.0555,16.7845 16,17.1355 16,17.5 C16,18.4705 16.3165,19.3645 16.8385,20.101 L11.515,25.4245 C11.0695,25.1605 10.5565,25 10,25 C8.344,25 7,26.344 7,28 C7,29.656 8.344,31 10,31 C11.656,31 13,29.656 13,28 C13,27.445 12.8395,26.9305 12.5755,26.485 L17.899,21.1615 C18.4405,21.5455 19.0675,21.8095 19.75,21.9235 L19.75,25.105 C18.4585,25.4395 17.5,26.602 17.5,28 C17.5,29.6575 18.8425,31 20.5,31 C22.1575,31 23.5,29.6575 23.5,28 C23.5,26.602 22.5415,25.4395 21.25,25.105 L21.25,21.9235 C22.102,21.781 22.864,21.397 23.482,20.845 L25.267,22.276 C25.099,22.651 25,23.0635 25,23.5 C25,25.156 26.344,26.5 28,26.5 C29.656,26.5 31,25.156 31,23.5 C31,21.844 29.656,20.5 28,20.5" id="Page-1" fill="#0F243D" fill-rule="nonzero"></path>
                                        </g>
                                        <g id="Group-23" stroke-linecap="square" transform="translate(0.000000, 132.000000)" stroke="#0F243D" stroke-width="2">
                                            <path d="M15.5,0 L149.5,0" id="Line"></path>
                                            <path d="M0.5,0 L10.5,0" id="Line"></path>
                                            <path d="M154.5,0 L164.5,0" id="Line"></path>
                                            <path d="M171.5,0 L174.5,0" id="Line"></path>
                                        </g>
                                    </g>
                                </g>
                            </g>
                        </g>
                    </g>
                </g>
            </g>
        </g>
    </g>
</svg>