<?xml version="1.0" encoding="UTF-8"?>
<svg width="166px" height="166px" viewBox="0 0 166 166" version="1.1" xmlns="http://www.w3.org/2000/svg" xmlns:xlink="http://www.w3.org/1999/xlink">
    <!-- Generator: Sketch 44.1 (41455) - http://www.bohemiancoding.com/sketch -->
    <title>Group 74</title>
    <desc>Created with Sketch.</desc>
    <defs></defs>
    <g id="Page-1" stroke="none" stroke-width="1" fill="none" fill-rule="evenodd">
        <g id="techSG" transform="translate(-615.000000, -8609.000000)">
            <g id="Group-62" transform="translate(105.000000, 8609.000000)">
                <g id="Group-87">
                    <g id="Group-81">
                        <g id="Group-74" transform="translate(510.000000, 0.000000)">
                            <rect id="Rectangle-12" fill="#D8D8D8" opacity="0" x="0" y="0" width="166" height="166"></rect>
                            <g id="Group-70" transform="translate(53.000000, 53.000000)">
                                <circle id="Oval-7" fill="#E95545" cx="30" cy="11.4" r="9"></circle>
                                <circle id="Oval-7" fill="#E95545" cx="12" cy="48.6" r="9"></circle>
                                <circle id="Oval-7" fill="#E95545" cx="48" cy="48.6" r="9"></circle>
                                <path d="M41.25,48.75 C41.25,44.61 44.61,41.25 48.75,41.25 C51.79875,41.25 54.405,43.06875 55.575,45.675 C54.6375,45.2475 53.59875,45 52.5,45 C48.36,45 45,48.36 45,52.5 C45,53.59875 45.2475,54.63375 45.675,55.575 C43.0725,54.3975 41.25,51.795 41.25,48.75 L41.25,48.75 Z M21.5475,44.24625 C20.925,42.825 20.01,41.57625 18.88875,40.53375 L23.3775,32.76 L29.3325,22.4325 C29.56125,22.44375 29.77125,22.5 30,22.5 C30.22875,22.5 30.43875,22.44375 30.6675,22.4325 L36.63,32.76 L41.11125,40.53375 C39.9975,41.57625 39.075,42.825 38.4525,44.24625 L21.5475,44.24625 Z M8.84625,55.575 C6.2475,54.3975 4.425,51.795 4.425,48.75 C4.425,44.61 7.785,41.25 11.925,41.25 C14.97,41.25 17.58,43.06875 18.75,45.675 C17.8125,45.2475 16.77375,45 15.675,45 C11.535,45 8.175,48.36 8.175,52.5 C8.175,53.59875 8.4225,54.63375 8.84625,55.575 L8.84625,55.575 Z M22.5,11.25 C22.5,7.11 25.86,3.75 30,3.75 C33.045,3.75 35.655,5.56875 36.825,8.175 C35.8875,7.7475 34.84875,7.5 33.75,7.5 C29.61,7.5 26.25,10.86 26.25,15 C26.25,16.09875 26.4975,17.13375 26.925,18.075 C24.3225,16.8975 22.5,14.295 22.5,11.25 L22.5,11.25 Z M48.75,37.5 C48.51375,37.5 48.29625,37.55625 48.06,37.57125 L43.125,29.01 L37.62375,19.4775 C39.83625,17.4225 41.25,14.50875 41.25,11.25 C41.25,5.04 36.21,0 30,0 C23.79,0 18.75,5.04 18.75,11.25 C18.75,14.50875 20.16375,17.4225 22.38375,19.4775 L16.8825,29.01 L11.94,37.57125 C11.70375,37.55625 11.48625,37.5 11.25,37.5 C5.04,37.5 0,42.54 0,48.75 C0,54.96 5.04,60 11.25,60 C16.42125,60 20.72625,56.49 22.04625,51.74625 L37.95375,51.74625 C39.27375,56.49 43.58625,60 48.75,60 C54.96,60 60,54.96 60,48.75 C60,42.54 54.96,37.5 48.75,37.5 L48.75,37.5 Z" id="Page-1" fill="#0F243D"></path>
                            </g>
                            <g id="Group-97">
                                <path d="M82.548913,4.05978261 L4.71843702,81.8902586" id="Line" stroke="#0F243D" stroke-linecap="square" stroke-dasharray="25,5"></path>
                                <path d="M161.038043,81.6467391 L83.2075675,3.8162631" id="Line" stroke="#0F243D" stroke-linecap="square" stroke-dasharray="25,5"></path>
                                <path d="M4.96195652,85.2554348 L82.7924325,163.085911" id="Line" stroke="#0F243D" stroke-linecap="square" stroke-dasharray="25,5"></path>
                                <path d="M161.038043,85.0119153 L83.2075675,162.842391" id="Line" stroke="#0F243D" stroke-linecap="square" stroke-dasharray="25,5"></path>
                                <circle id="Oval-9" fill="#E95545" cx="83" cy="4.51086957" r="4.51086957"></circle>
                                <circle id="Oval-9" fill="#E95545" cx="83" cy="161.48913" r="4.51086957"></circle>
                                <circle id="Oval-9" fill="#E95545" cx="161.48913" cy="82.0978261" r="4.51086957"></circle>
                                <circle id="Oval-9" fill="#E95545" cx="4.51086957" cy="83" r="4.51086957"></circle>
                            </g>
                        </g>
                    </g>
                </g>
            </g>
        </g>
    </g>
</svg>