<?xml version="1.0" encoding="UTF-8"?>
<svg width="136px" height="157px" viewBox="0 0 136 157" version="1.1" xmlns="http://www.w3.org/2000/svg" xmlns:xlink="http://www.w3.org/1999/xlink">
    <!-- Generator: Sketch 44.1 (41455) - http://www.bohemiancoding.com/sketch -->
    <title>Group 79</title>
    <desc>Created with Sketch.</desc>
    <defs></defs>
    <g id="Page-1" stroke="none" stroke-width="1" fill="none" fill-rule="evenodd">
        <g id="techSG" transform="translate(-1179.000000, -8616.000000)">
            <g id="Group-62" transform="translate(105.000000, 8609.000000)">
                <g id="Group-87">
                    <g id="Group-81">
                        <g id="Group-79" transform="translate(1064.000000, 0.000000)">
                            <rect id="Rectangle-12" fill="#D8D8D8" opacity="0" x="0" y="0" width="166" height="166"></rect>
                            <g id="Group-73" transform="translate(23.000000, 39.000000)">
                                <rect id="Rectangle-10" fill="#E95545" x="4.05797101" y="9.28" width="31.884058" height="39.44"></rect>
                                <path d="M4.92753623,47.125 L34.9275362,47.125 L34.9275362,10.875 L4.92753623,10.875 L4.92753623,47.125 Z M19.9275362,55.386375 C18.3695652,55.386375 17.1050725,54.12125 17.1050725,52.5625 C17.1050725,51.00375 18.3695652,49.738625 19.9275362,49.738625 C21.4855072,49.738625 22.75,51.00375 22.75,52.5625 C22.75,54.12125 21.4855072,55.386375 19.9275362,55.386375 L19.9275362,55.386375 Z M14.4927536,3.625 L25.3623188,3.625 C26.3623188,3.625 27.173913,4.437 27.173913,5.4375 C27.173913,6.438 26.3623188,7.25 25.3623188,7.25 L14.4927536,7.25 C13.4927536,7.25 12.6811594,6.438 12.6811594,5.4375 C12.6811594,4.437 13.4927536,3.625 14.4927536,3.625 L14.4927536,3.625 Z M32.6086957,0 L7.24637681,0 C3.26086957,0 0,3.2625 0,7.25 L0,50.75 C0,54.7375 3.26086957,58 7.24637681,58 L32.6086957,58 C36.5942029,58 39.8550725,54.7375 39.8550725,50.75 L39.8550725,7.25 C39.8550725,3.2625 36.5942029,0 32.6086957,0 L32.6086957,0 Z" id="Page-1" fill="#0F243D"></path>
                            </g>
                            <g id="Group-73-Copy" transform="translate(103.000000, 96.000000)">
                                <rect id="Rectangle-10" fill="#E95545" x="4.05797101" y="9.28" width="31.884058" height="39.44"></rect>
                                <path d="M4.92753623,47.125 L34.9275362,47.125 L34.9275362,10.875 L4.92753623,10.875 L4.92753623,47.125 Z M19.9275362,55.386375 C18.3695652,55.386375 17.1050725,54.12125 17.1050725,52.5625 C17.1050725,51.00375 18.3695652,49.738625 19.9275362,49.738625 C21.4855072,49.738625 22.75,51.00375 22.75,52.5625 C22.75,54.12125 21.4855072,55.386375 19.9275362,55.386375 L19.9275362,55.386375 Z M14.4927536,3.625 L25.3623188,3.625 C26.3623188,3.625 27.173913,4.437 27.173913,5.4375 C27.173913,6.438 26.3623188,7.25 25.3623188,7.25 L14.4927536,7.25 C13.4927536,7.25 12.6811594,6.438 12.6811594,5.4375 C12.6811594,4.437 13.4927536,3.625 14.4927536,3.625 L14.4927536,3.625 Z M32.6086957,0 L7.24637681,0 C3.26086957,0 0,3.2625 0,7.25 L0,50.75 C0,54.7375 3.26086957,58 7.24637681,58 L32.6086957,58 C36.5942029,58 39.8550725,54.7375 39.8550725,50.75 L39.8550725,7.25 C39.8550725,3.2625 36.5942029,0 32.6086957,0 L32.6086957,0 Z" id="Page-1" fill="#0F243D"></path>
                            </g>
                            <g id="Group-76" transform="translate(69.000000, 33.000000)">
                                <path d="M0.0639456483,1.52408287 C35.4354581,-2.54171614 55.6768147,13.8122483 60.7880154,50.5859763" id="Path-6" stroke="#0F243D" stroke-dasharray="5"></path>
                                <circle id="Oval-9" fill="#E95545" cx="61" cy="49" r="5"></circle>
                            </g>
                            <g id="Group-76" transform="translate(57.000000, 130.000000) scale(-1, -1) translate(-57.000000, -130.000000) translate(24.000000, 103.000000)">
                                <path d="M0.0639456483,1.52408287 C35.4354581,-2.54171614 55.6768147,13.8122483 60.7880154,50.5859763" id="Path-6" stroke="#0F243D" stroke-dasharray="5"></path>
                                <circle id="Oval-9" fill="#E95545" cx="61" cy="49" r="5"></circle>
                            </g>
                            <polygon id="+" fill="#9B9B9B" points="138.737445 34.4375 145.674945 34.4375 145.674945 36.1875 138.737445 36.1875 138.737445 43.71875 136.862445 43.71875 136.862445 36.1875 130.081195 36.1875 130.081195 34.4375 136.862445 34.4375 136.862445 27.15625 138.737445 27.15625"></polygon>
                            <polygon id="+" fill="#9B9B9B" points="68.7374449 14.4375 75.6749449 14.4375 75.6749449 16.1875 68.7374449 16.1875 68.7374449 23.71875 66.8624449 23.71875 66.8624449 16.1875 60.0811949 16.1875 60.0811949 14.4375 66.8624449 14.4375 66.8624449 7.15625 68.7374449 7.15625"></polygon>
                            <polygon id="+" fill="#9B9B9B" points="18.7374449 154.4375 25.6749449 154.4375 25.6749449 156.1875 18.7374449 156.1875 18.7374449 163.71875 16.8624449 163.71875 16.8624449 156.1875 10.0811949 156.1875 10.0811949 154.4375 16.8624449 154.4375 16.8624449 147.15625 18.7374449 147.15625"></polygon>
                        </g>
                    </g>
                </g>
            </g>
        </g>
    </g>
</svg>