<?xml version="1.0" encoding="UTF-8"?>
<svg width="100px" height="106px" viewBox="0 0 100 106" version="1.1" xmlns="http://www.w3.org/2000/svg" xmlns:xlink="http://www.w3.org/1999/xlink">
    <!-- Generator: Sketch 44.1 (41455) - http://www.bohemiancoding.com/sketch -->
    <title>Group 71</title>
    <desc>Created with Sketch.</desc>
    <defs></defs>
    <g id="Page-1" stroke="none" stroke-width="1" fill="none" fill-rule="evenodd">
        <g id="techSG" transform="translate(-928.000000, -8648.000000)">
            <g id="Group-62" transform="translate(105.000000, 8609.000000)">
                <g id="Group-87">
                    <g id="Group-81">
                        <g id="Group-71" transform="translate(790.000000, 0.000000)">
                            <rect id="Rectangle-12" fill="#D8D8D8" opacity="0" x="0" y="0" width="166" height="166"></rect>
                            <circle id="Oval-8" fill="#E95545" cx="116" cy="102" r="13"></circle>
                            <path d="M116.333333,111.875 C110.82,111.875 106.333333,107.40975 106.333333,101.9375 C106.333333,96.452 110.82,92 116.333333,92 C121.846667,92 126.333333,96.452 126.333333,101.9375 C126.333333,107.40975 121.846667,111.875 116.333333,111.875 M116.333333,85.375 C107.126667,85.375 99.6666667,92.788375 99.6666667,101.9375 C99.6666667,109.841125 105.246667,116.426375 112.706667,118.076 C111.253333,129.48425 101.533333,138.375 89.6666667,138.375 C76.8,138.375 66.3333333,127.97375 66.3333333,115.1875 L66.3333333,98.287125 C81.2933333,96.617625 93,84.122875 93,68.8125 L93,48.9375 C93,47.102375 91.5066667,45.625 89.6666667,45.625 L79.6666667,45.625 L79.6666667,42.3125 C79.6666667,40.490625 78.1666667,39 76.3333333,39 C74.5,39 73,40.490625 73,42.3125 L73,45.625 L73,52.25 L73,55.5625 C73,57.384375 74.5,58.875 76.3333333,58.875 C78.1666667,58.875 79.6666667,57.384375 79.6666667,55.5625 L79.6666667,52.25 L84.6666667,52.25 C85.5866667,52.25 86.3333333,52.985375 86.3333333,53.90625 L86.3333333,68.8125 C86.3333333,81.59875 75.8666667,92 63,92 C50.1333333,92 39.6666667,81.59875 39.6666667,68.8125 L39.6666667,53.90625 C39.6666667,52.985375 40.4133333,52.25 41.3333333,52.25 L46.3333333,52.25 L46.3333333,55.5625 C46.3333333,57.384375 47.8333333,58.875 49.6666667,58.875 C51.5,58.875 53,57.384375 53,55.5625 L53,52.25 L53,45.625 L53,42.3125 C53,40.490625 51.5,39 49.6666667,39 C47.8333333,39 46.3333333,40.490625 46.3333333,42.3125 L46.3333333,45.625 L36.3333333,45.625 C34.4933333,45.625 33,47.102375 33,48.9375 L33,68.8125 C33,84.122875 44.7066667,96.617625 59.6666667,98.287125 L59.6666667,115.1875 C59.6666667,131.6175 73.1266667,145 89.6666667,145 C105.173333,145 117.82,133.200875 119.36,118.188625 C127.113333,116.7775 133,110.053125 133,101.9375 C133,92.788375 125.54,85.375 116.333333,85.375 Z" id="Page-1" fill="#0F243D"></path>
                        </g>
                    </g>
                </g>
            </g>
        </g>
    </g>
</svg>