<?xml version="1.0" encoding="UTF-8"?>
<svg width="162px" height="167px" viewBox="0 0 162 167" version="1.1" xmlns="http://www.w3.org/2000/svg" xmlns:xlink="http://www.w3.org/1999/xlink">
    <!-- Generator: Sketch 44.1 (41455) - http://www.bohemiancoding.com/sketch -->
    <title>Group 80</title>
    <desc>Created with Sketch.</desc>
    <defs></defs>
    <g id="Page-1" stroke="none" stroke-width="1" fill="none" fill-rule="evenodd">
        <g id="techSG" transform="translate(-107.000000, -8609.000000)">
            <g id="Group-62" transform="translate(105.000000, 8609.000000)">
                <g id="Group-87">
                    <g id="Group-81">
                        <g id="Group-80">
                            <rect id="Rectangle-12" fill="#D8D8D8" opacity="0" x="0" y="0" width="166" height="166"></rect>
                            <g id="Group-75" transform="translate(25.000000, 59.000000)">
                                <g id="Page-1" transform="translate(45.043478, 0.000000)">
                                    <path d="M35.5296249,20.6020067 C34.397272,20.6020067 33.4782609,21.5249766 33.4782609,22.6622074 C33.4782609,23.7994381 34.397272,24.722408 35.5296249,24.722408 C36.6619778,24.722408 37.5809889,23.7994381 37.5809889,22.6622074 C37.5809889,21.5249766 36.6619778,20.6020067 35.5296249,20.6020067" id="Fill-1" fill="#E95545"></path>
                                    <path d="M35.5296249,16.4816054 C36.6619778,16.4816054 37.5809889,15.5586355 37.5809889,14.4214047 C37.5809889,13.2841739 36.6619778,12.361204 35.5296249,12.361204 C34.397272,12.361204 33.4782609,13.2841739 33.4782609,14.4214047 C33.4782609,15.5586355 34.397272,16.4816054 35.5296249,16.4816054" id="Fill-3" fill="#E95545"></path>
                                    <path d="M43.735081,24.722408 C44.8674339,24.722408 45.786445,23.7994381 45.786445,22.6622074 C45.786445,21.5249766 44.8674339,20.6020067 43.735081,20.6020067 C42.602728,20.6020067 41.683717,21.5249766 41.683717,22.6622074 C41.683717,23.7994381 42.602728,24.722408 43.735081,24.722408" id="Fill-5" fill="#E95545"></path>
                                    <path d="M43.735081,16.4816054 C44.8674339,16.4816054 45.786445,15.5586355 45.786445,14.4214047 C45.786445,13.2841739 44.8674339,12.361204 43.735081,12.361204 C42.602728,12.361204 41.683717,13.2841739 41.683717,14.4214047 C41.683717,15.5586355 42.602728,16.4816054 43.735081,16.4816054" id="Fill-7" fill="#E95545"></path>
                                    <path d="M47.837809,16.4816054 C46.7054561,16.4816054 45.786445,17.4045753 45.786445,18.541806 C45.786445,19.6790368 46.7054561,20.6020067 47.837809,20.6020067 C48.970162,20.6020067 49.8891731,19.6790368 49.8891731,18.541806 C49.8891731,17.4045753 48.970162,16.4816054 47.837809,16.4816054" id="Fill-9" fill="#E95545"></path>
                                    <path d="M51.9405371,16.4816054 C53.07289,16.4816054 53.9919011,15.5586355 53.9919011,14.4214047 C53.9919011,13.2841739 53.07289,12.361204 51.9405371,12.361204 C50.8081841,12.361204 49.8891731,13.2841739 49.8891731,14.4214047 C49.8891731,15.5586355 50.8081841,16.4816054 51.9405371,16.4816054" id="Fill-11" fill="#E95545"></path>
                                    <path d="M39.6323529,16.4816054 C38.5,16.4816054 37.5809889,17.4045753 37.5809889,18.541806 C37.5809889,19.6790368 38.5,20.6020067 39.6323529,20.6020067 C40.7647059,20.6020067 41.683717,19.6790368 41.683717,18.541806 C41.683717,17.4045753 40.7647059,16.4816054 39.6323529,16.4816054" id="Fill-13" fill="#E95545"></path>
                                    <path d="M31.4268968,20.6020067 C32.5592498,20.6020067 33.4782609,19.6790368 33.4782609,18.541806 C33.4782609,17.4045753 32.5592498,16.4816054 31.4268968,16.4816054 C30.2945439,16.4816054 29.3755328,17.4045753 29.3755328,18.541806 C29.3755328,19.6790368 30.2945439,20.6020067 31.4268968,20.6020067" id="Fill-15" fill="#E95545"></path>
                                    <path d="M47.837809,12.361204 C48.970162,12.361204 49.8891731,11.4382341 49.8891731,10.3010033 C49.8891731,9.16377258 48.970162,8.24080268 47.837809,8.24080268 C46.7054561,8.24080268 45.786445,9.16377258 45.786445,10.3010033 C45.786445,11.4382341 46.7054561,12.361204 47.837809,12.361204" id="Fill-17" fill="#E95545"></path>
                                    <path d="M39.6323529,12.361204 C40.7647059,12.361204 41.683717,11.4382341 41.683717,10.3010033 C41.683717,9.16377258 40.7647059,8.24080268 39.6323529,8.24080268 C38.5,8.24080268 37.5809889,9.16377258 37.5809889,10.3010033 C37.5809889,11.4382341 38.5,12.361204 39.6323529,12.361204" id="Fill-19" fill="#E95545"></path>
                                    <path d="M31.4268968,12.361204 C32.5592498,12.361204 33.4782609,11.4382341 33.4782609,10.3010033 C33.4782609,9.16377258 32.5592498,8.24080268 31.4268968,8.24080268 C30.2945439,8.24080268 29.3755328,9.16377258 29.3755328,10.3010033 C29.3755328,11.4382341 30.2945439,12.361204 31.4268968,12.361204" id="Fill-21" fill="#E95545"></path>
                                    <path d="M27.3241688,41.2040134 C23.92711,41.2040134 21.1700767,43.9688027 21.1700767,47.3846154 C21.1700767,50.8004281 23.92711,53.5652174 27.3241688,53.5652174 C30.7212276,53.5652174 33.4782609,50.8004281 33.4782609,47.3846154 C33.4782609,43.9688027 30.7212276,41.2040134 27.3241688,41.2040134" id="Fill-23" fill="#0F243D"></path>
                                    <path d="M47.837809,41.2040134 C44.4407502,41.2040134 41.683717,43.9688027 41.683717,47.3846154 C41.683717,50.8004281 44.4407502,53.5652174 47.837809,53.5652174 C51.2348679,53.5652174 53.9919011,50.8004281 53.9919011,47.3846154 C53.9919011,43.9688027 51.2348679,41.2040134 47.837809,41.2040134" id="Fill-25" fill="#0F243D"></path>
                                    <path d="M63.7219309,8.53458729 C61.609026,7.69402542 59.2294437,8.72000535 58.3883845,10.8296508 L51.2127131,28.8440455 L28.3687234,28.8440455 L21.012532,2.98852709 C20.5078964,1.22087492 18.899627,0.0012361204 17.0657076,0.0012361204 L4.75752344,0.0012361204 C2.49281756,0.0012361204 0.654795396,1.84305552 0.654795396,4.12163746 C0.654795396,6.396099 2.49281756,8.2420388 4.75752344,8.2420388 L13.9722506,8.2420388 L21.328442,34.0975572 C21.8330776,35.8652094 23.441347,37.0848482 25.2711637,37.0848482 L53.99026,37.0848482 C55.6682758,37.0848482 57.1780797,36.0588682 57.8016944,34.4931157 L66.0071505,13.891109 C66.8482097,11.7773431 65.8266304,9.38338997 63.7219309,8.53458729" id="Fill-27" fill="#0F243D"></path>
                                </g>
                                <path d="M54.173913,25.5652174 L21.2818113,25.5652174" id="Line" stroke="#9B9B9B" stroke-width="2" stroke-linecap="square"></path>
                                <path d="M11.5652174,25.5652174 L0.608695652,25.5652174" id="Line" stroke="#9B9B9B" stroke-width="2" stroke-linecap="square"></path>
                                <path d="M35.9130435,6.08695652 L24.9565217,6.08695652" id="Line" stroke="#9B9B9B" stroke-width="2" stroke-linecap="square"></path>
                                <path d="M54.173913,37.7391304 L46.2608696,37.7391304" id="Line" stroke="#9B9B9B" stroke-width="2" stroke-linecap="square"></path>
                                <path d="M38.9565217,37.7391304 L11.5652174,37.7391304" id="Line" stroke="#9B9B9B" stroke-width="2" stroke-linecap="square"></path>
                            </g>
                            <circle id="Oval-10" stroke="#0F243D" stroke-dasharray="55,10" cx="83" cy="86" r="80"></circle>
                            <circle id="Oval-9" fill="#E95545" cx="83" cy="5" r="5"></circle>
                            <circle id="Oval-9" fill="#E95545" cx="18" cy="133" r="5"></circle>
                            <circle id="Oval-9" fill="#E95545" cx="148" cy="133" r="5"></circle>
                        </g>
                    </g>
                </g>
            </g>
        </g>
    </g>
</svg>