<svg xmlns="http://www.w3.org/2000/svg" width="159" height="30" viewBox="0 0 159 30">
    <g fill="none" fill-rule="nonzero">
        <path fill="#FFF" d="M14.015 5.27v24.081H8.442V5.271H0V.323h22.785V5.27zM33.275 4.946v7.46h13.77v4.053h-13.77v8.19h14.67v4.621H27.703V.324h20.08v4.622H33.275zM70.157 18.973h5.573v.973c0 4.054-.738 6.649-2.213 7.865-1.475 1.216-4.754 1.784-9.917 1.784-5.82 0-9.343-.973-10.655-2.838-1.311-1.865-1.967-6.892-1.967-15 0-4.784.902-7.946 2.705-9.487C55.486.73 59.256 0 64.993 0c4.18 0 6.967.649 8.36 1.865 1.393 1.216 2.131 3.73 2.131 7.378v.649h-5.573v-.73c0-1.865-.328-3.08-1.066-3.648-.737-.568-2.376-.811-4.917-.811-3.442 0-5.491.405-6.229 1.216-.656.81-1.065 3.324-1.065 7.46 0 5.594.327 8.837.901 9.891.656 1.054 2.623 1.54 6.065 1.54 2.787 0 4.59-.242 5.41-.81.819-.568 1.229-1.784 1.229-3.73l-.082-1.297zM104.17.324v29.027h-5.574V16.784H84.827V29.35h-5.573V.324h5.573v11.838h13.77V.324z"/>
        <path fill="#E95545" d="M131.298 8.19h-3.278c0-2.352-.41-3.812-1.148-4.46-.82-.649-2.623-.973-5.573-.973-3.442 0-5.737.324-6.72.892-.984.567-1.476 1.946-1.476 4.054 0 2.351.41 3.73 1.148 4.297.82.486 3.114.892 7.048 1.054 4.59.162 7.458.81 8.688 1.703 1.229.973 1.885 3.08 1.885 6.405 0 3.568-.738 5.92-2.131 6.973-1.394 1.054-4.59 1.54-9.426 1.54-4.261 0-7.048-.567-8.441-1.62-1.394-1.055-2.131-3.163-2.131-6.406V20.35h3.278v.73c0 2.595.41 4.216 1.23 4.865.82.649 2.868.973 6.146.973 3.77 0 6.147-.324 6.967-.973.901-.649 1.311-2.351 1.311-5.027 0-1.784-.328-2.919-.901-3.568-.574-.567-1.803-.973-3.688-1.054l-3.443-.162-3.278-.162c-5-.324-7.458-2.919-7.458-7.622 0-3.324.737-5.513 2.13-6.648C113.514.568 116.382.08 120.726.08c4.426 0 7.213.487 8.606 1.54 1.311.974 1.967 3.163 1.967 6.568zM146.296 14.919h12.54c.082.73.082 1.784.082 3.162 0 5.27-.656 8.433-1.967 9.73-1.311 1.216-4.672 1.865-10.163 1.865-5.163 0-8.524-.73-9.999-2.19-1.475-1.459-2.213-4.783-2.213-9.891V10.703c0-4.298.82-7.135 2.46-8.595C138.673.73 141.952 0 146.951 0c5 0 8.196.486 9.671 1.378 1.475.892 2.131 3 2.131 6.244v1.135h-3.278v-.73c0-2.351-.492-3.81-1.475-4.378-.984-.568-3.525-.811-7.705-.811-3.852 0-6.228.486-7.212 1.378-.983.892-1.475 3.162-1.475 6.73l-.082 3.81v4.136c0 3.649.574 5.919 1.639 6.73 1.065.81 3.934 1.216 8.524 1.216 3.524 0 5.737-.406 6.556-1.216.82-.811 1.23-2.838 1.23-6.244 0-.243-.082-.892-.164-1.783h-9.343v-2.676h.327z"/>
    </g>
</svg>
